<mxfile host="app.diagrams.net" modified="2024-04-09T04:03:17.039Z" agent="Mozilla/5.0 (Macintosh; Intel Mac OS X 10_15_7) AppleWebKit/537.36 (KHTML, like Gecko) Chrome/120.0.0.0 Safari/537.36" etag="KWsc7PO_99SldlpD3dLH" version="24.2.2" type="github">
  <diagram id="C5RBs43oDa-KdzZeNtuy" name="Page-1">
    <mxGraphModel dx="2131" dy="1914" grid="1" gridSize="10" guides="1" tooltips="1" connect="1" arrows="1" fold="1" page="1" pageScale="1" pageWidth="827" pageHeight="1169" math="0" shadow="0">
      <root>
        <mxCell id="WIyWlLk6GJQsqaUBKTNV-0" />
        <mxCell id="WIyWlLk6GJQsqaUBKTNV-1" parent="WIyWlLk6GJQsqaUBKTNV-0" />
        <mxCell id="vteJUobceDA6RaGQ8-ky-16" value="" style="rounded=0;whiteSpace=wrap;html=1;align=center;verticalAlign=middle;arcSize=42;fontFamily=Helvetica;fontSize=12;fillColor=#dae8fc;strokeColor=#6c8ebf;" vertex="1" parent="WIyWlLk6GJQsqaUBKTNV-1">
          <mxGeometry x="-326" y="-1130" width="740" height="290" as="geometry" />
        </mxCell>
        <mxCell id="vteJUobceDA6RaGQ8-ky-0" value="ObjectOperation" style="swimlane;fontStyle=1;align=center;verticalAlign=top;childLayout=stackLayout;horizontal=1;startSize=26;horizontalStack=0;resizeParent=1;resizeParentMax=0;resizeLast=0;collapsible=1;marginBottom=0;whiteSpace=wrap;html=1;" vertex="1" parent="WIyWlLk6GJQsqaUBKTNV-1">
          <mxGeometry x="-140" y="-660" width="430" height="250" as="geometry" />
        </mxCell>
        <mxCell id="vteJUobceDA6RaGQ8-ky-1" value="+ ops:&amp;nbsp;vector&amp;lt;OSDOp&amp;gt;&amp;nbsp; // 多个 OSD 操作的集合&lt;div&gt;+&amp;nbsp;flags: int&lt;/div&gt;&lt;div&gt;+&amp;nbsp;priority: int&amp;nbsp; // 操作的优先级，OSD 端有优先级队列&lt;/div&gt;&lt;div&gt;&lt;br&gt;&lt;/div&gt;&lt;div&gt;+&amp;nbsp;out_bl:&amp;nbsp; &amp;nbsp; &amp;nbsp;&lt;span style=&quot;white-space: pre;&quot;&gt;&#x9;&lt;/span&gt;vector&amp;lt;bufferlist*&amp;gt; // 每个操作的输出集合&lt;/div&gt;&lt;div&gt;+&amp;nbsp;out_handler:&amp;nbsp;vector&amp;lt;Context*&amp;gt; // 每个操作的回调&lt;/div&gt;&lt;div&gt;+&amp;nbsp;out_rval:&amp;nbsp;&lt;span style=&quot;white-space: pre;&quot;&gt;&#x9;&lt;/span&gt;vector&amp;lt;int*&amp;gt;&amp;nbsp; &lt;span style=&quot;white-space: pre;&quot;&gt;&#x9;&amp;nbsp;&lt;/span&gt;&amp;nbsp; &amp;nbsp; // 每个操作的返回值&lt;/div&gt;" style="text;strokeColor=none;fillColor=none;align=left;verticalAlign=top;spacingLeft=4;spacingRight=4;overflow=hidden;rotatable=0;points=[[0,0.5],[1,0.5]];portConstraint=eastwest;whiteSpace=wrap;html=1;" vertex="1" parent="vteJUobceDA6RaGQ8-ky-0">
          <mxGeometry y="26" width="430" height="124" as="geometry" />
        </mxCell>
        <mxCell id="vteJUobceDA6RaGQ8-ky-2" value="" style="line;strokeWidth=1;fillColor=none;align=left;verticalAlign=middle;spacingTop=-1;spacingLeft=3;spacingRight=3;rotatable=0;labelPosition=right;points=[];portConstraint=eastwest;strokeColor=inherit;" vertex="1" parent="vteJUobceDA6RaGQ8-ky-0">
          <mxGeometry y="150" width="430" height="10" as="geometry" />
        </mxCell>
        <mxCell id="vteJUobceDA6RaGQ8-ky-3" value="+ add_data(int op, uint64_t off, uint64_t len, bufferlist&amp;amp; bl): void&lt;div&gt;+&amp;nbsp;add_xattr(int op, const char *name, const bufferlist&amp;amp; data): void&lt;/div&gt;&lt;div&gt;+&amp;nbsp;&lt;span style=&quot;background-color: initial;&quot;&gt;add_call(int op, const char *cname, const char *method,&amp;nbsp;&lt;/span&gt;&lt;span style=&quot;background-color: initial;&quot;&gt;bufferlist &lt;span style=&quot;white-space: pre;&quot;&gt;&#x9;&lt;/span&gt;&lt;span style=&quot;white-space: pre;&quot;&gt;&#x9;&lt;/span&gt;&amp;amp;indata,&amp;nbsp;&lt;/span&gt;&lt;span style=&quot;background-color: initial;&quot;&gt;bufferlist *outbl, Context *ctx, int *prval): void&lt;/span&gt;&lt;/div&gt;&lt;div&gt;&lt;span style=&quot;background-color: initial;&quot;&gt;.......&lt;/span&gt;&lt;/div&gt;" style="text;strokeColor=none;fillColor=none;align=left;verticalAlign=top;spacingLeft=4;spacingRight=4;overflow=hidden;rotatable=0;points=[[0,0.5],[1,0.5]];portConstraint=eastwest;whiteSpace=wrap;html=1;" vertex="1" parent="vteJUobceDA6RaGQ8-ky-0">
          <mxGeometry y="160" width="430" height="90" as="geometry" />
        </mxCell>
        <mxCell id="vteJUobceDA6RaGQ8-ky-4" value="OSDOp" style="swimlane;fontStyle=1;align=center;verticalAlign=top;childLayout=stackLayout;horizontal=1;startSize=26;horizontalStack=0;resizeParent=1;resizeParentMax=0;resizeLast=0;collapsible=1;marginBottom=0;whiteSpace=wrap;html=1;" vertex="1" parent="WIyWlLk6GJQsqaUBKTNV-1">
          <mxGeometry x="124" y="-1050" width="250" height="190" as="geometry" />
        </mxCell>
        <mxCell id="vteJUobceDA6RaGQ8-ky-5" value="+ op:&amp;nbsp;ceph_osd_op&lt;div&gt;+ soid: sobject_t&amp;nbsp; // src obj 操作的对象，对于&amp;nbsp;rados_clone_range 就是 src obj&lt;/div&gt;&lt;div&gt;&lt;br&gt;&lt;/div&gt;&lt;div&gt;+&amp;nbsp;&lt;span style=&quot;background-color: initial;&quot;&gt;indata:&amp;nbsp;&lt;/span&gt;&lt;span style=&quot;background-color: initial;&quot;&gt;bufferlist&amp;nbsp; // 操作的输入，比如写对象的数据，或者 cls 的输入&lt;/span&gt;&lt;/div&gt;&lt;div&gt;&lt;span style=&quot;background-color: initial;&quot;&gt;+ outdata:&amp;nbsp;&lt;/span&gt;&lt;span style=&quot;background-color: initial;&quot;&gt;bufferlist&lt;/span&gt;&lt;span style=&quot;background-color: initial;&quot;&gt;&amp;nbsp; // 输出，读取读操作的输出或者 cls 的输出&lt;/span&gt;&lt;/div&gt;&lt;div&gt;&lt;span style=&quot;background-color: initial;&quot;&gt;&lt;br&gt;&lt;/span&gt;&lt;/div&gt;&lt;div&gt;&lt;span style=&quot;background-color: initial;&quot;&gt;+&amp;nbsp;&lt;/span&gt;&lt;span style=&quot;background-color: initial;&quot;&gt;rval:&amp;nbsp;&lt;/span&gt;&lt;span style=&quot;background-color: initial;&quot;&gt;errorcode32_t&amp;nbsp; // 操作的 code 返回值&lt;/span&gt;&lt;/div&gt;" style="text;strokeColor=none;fillColor=none;align=left;verticalAlign=top;spacingLeft=4;spacingRight=4;overflow=hidden;rotatable=0;points=[[0,0.5],[1,0.5]];portConstraint=eastwest;whiteSpace=wrap;html=1;" vertex="1" parent="vteJUobceDA6RaGQ8-ky-4">
          <mxGeometry y="26" width="250" height="164" as="geometry" />
        </mxCell>
        <mxCell id="vteJUobceDA6RaGQ8-ky-8" value="ceph_osd_op" style="swimlane;fontStyle=1;align=center;verticalAlign=top;childLayout=stackLayout;horizontal=1;startSize=26;horizontalStack=0;resizeParent=1;resizeParentMax=0;resizeLast=0;collapsible=1;marginBottom=0;whiteSpace=wrap;html=1;" vertex="1" parent="WIyWlLk6GJQsqaUBKTNV-1">
          <mxGeometry x="-176" y="-1050" width="250" height="110" as="geometry" />
        </mxCell>
        <mxCell id="vteJUobceDA6RaGQ8-ky-9" value="+&amp;nbsp;&lt;span style=&quot;background-color: initial;&quot;&gt;op:&amp;nbsp; &amp;nbsp; &amp;nbsp;&lt;/span&gt;__le16&amp;nbsp; //&lt;span style=&quot;background-color: initial;&quot;&gt;&amp;nbsp;CEPH_OSD_OP_*&amp;nbsp;&lt;/span&gt;&lt;div&gt;&lt;span style=&quot;background-color: initial;&quot;&gt;+ flags:&amp;nbsp;&lt;/span&gt;&lt;span style=&quot;background-color: initial;&quot;&gt;__le32&amp;nbsp; //&amp;nbsp;&lt;/span&gt;&lt;span style=&quot;background-color: initial;&quot;&gt;CEPH_OSD_OP_FLAG_*&lt;/span&gt;&lt;/div&gt;&lt;div&gt;&lt;span style=&quot;background-color: initial;&quot;&gt;+ union: 内部是对 data/xattr/cls/pg 等不同操作所需信息的 struct&lt;/span&gt;&lt;/div&gt;&lt;div&gt;&lt;span style=&quot;background-color: initial;&quot;&gt;+&amp;nbsp;&lt;/span&gt;&lt;span style=&quot;background-color: initial;&quot;&gt;payload_len:&amp;nbsp;&lt;/span&gt;&lt;span style=&quot;background-color: initial;&quot;&gt;__le32&lt;/span&gt;&lt;/div&gt;" style="text;strokeColor=none;fillColor=none;align=left;verticalAlign=top;spacingLeft=4;spacingRight=4;overflow=hidden;rotatable=0;points=[[0,0.5],[1,0.5]];portConstraint=eastwest;whiteSpace=wrap;html=1;" vertex="1" parent="vteJUobceDA6RaGQ8-ky-8">
          <mxGeometry y="26" width="250" height="84" as="geometry" />
        </mxCell>
        <mxCell id="vteJUobceDA6RaGQ8-ky-14" value="&lt;span style=&quot;font-size: 10px;&quot;&gt;&lt;font style=&quot;font-size: 10px;&quot;&gt;对单个对象的操作。每个可能都伴随着一些数据有效负载&lt;/font&gt;&lt;/span&gt;&lt;div style=&quot;font-size: 10px;&quot;&gt;&lt;ul style=&quot;border-color: var(--border-color); padding-left: 20px; margin-top: 2px; margin-left: 0px; margin-bottom: 2px; font-size: 10px;&quot;&gt;&lt;li style=&quot;border-color: var(--border-color); font-size: 10px;&quot;&gt;&lt;span style=&quot;border-color: var(--border-color); text-wrap: wrap; font-size: 10px;&quot;&gt;&lt;font style=&quot;font-size: 10px;&quot;&gt;CEPH_OSD_OP_*：标识该 op 的具体操作，读/写/其它&lt;/font&gt;&lt;/span&gt;&lt;/li&gt;&lt;li style=&quot;border-color: var(--border-color); font-size: 10px;&quot;&gt;&lt;span style=&quot;border-color: var(--border-color); text-wrap: wrap; font-size: 10px;&quot;&gt;&lt;font style=&quot;font-size: 10px;&quot;&gt;CEPH_OSD_OP_FLAG_*：给操作提供额外信息，比如是排他写还是覆盖写&lt;/font&gt;&lt;/span&gt;&lt;/li&gt;&lt;/ul&gt;&lt;/div&gt;" style="text;html=1;align=left;verticalAlign=middle;resizable=0;points=[];autosize=1;fontFamily=Helvetica;fontSize=10;fillColor=#e1d5e7;strokeColor=#9673a6;imageWidth=24;arcSize=12;absoluteArcSize=0;imageHeight=24;imageAspect=1;imageAlign=left;imageVerticalAlign=middle;fillOpacity=100;overflow=width;" vertex="1" parent="WIyWlLk6GJQsqaUBKTNV-1">
          <mxGeometry x="-306" y="-1115" width="380" height="50" as="geometry" />
        </mxCell>
        <mxCell id="vteJUobceDA6RaGQ8-ky-17" value="osd_types.h 定义了 OSDOp 格式" style="text;html=1;align=center;verticalAlign=middle;resizable=0;points=[];autosize=1;strokeColor=none;fillColor=none;fontFamily=Helvetica;fontSize=12;fontColor=default;" vertex="1" parent="WIyWlLk6GJQsqaUBKTNV-1">
          <mxGeometry x="214" y="-1130" width="200" height="30" as="geometry" />
        </mxCell>
        <mxCell id="vteJUobceDA6RaGQ8-ky-21" value="ops、&lt;span style=&quot;text-wrap: wrap; font-size: 10px;&quot;&gt;out_bl&lt;/span&gt;、&lt;span style=&quot;text-wrap: wrap; font-size: 10px;&quot;&gt;out_handler&lt;/span&gt;、&lt;span style=&quot;text-wrap: wrap; font-size: 10px;&quot;&gt;out_rval 的&amp;nbsp;&lt;/span&gt;&lt;span style=&quot;text-wrap: wrap; font-size: 10px;&quot;&gt;size 相同，对应元素不存在&lt;/span&gt;&lt;span style=&quot;text-wrap: wrap; font-size: 10px;&quot;&gt;则指向 NULL&lt;/span&gt;" style="text;html=1;align=left;verticalAlign=middle;resizable=0;points=[];autosize=1;strokeColor=#82b366;fillColor=#d5e8d4;fontFamily=Helvetica;fontSize=10;portConstraint=east;overflow=width;" vertex="1" parent="WIyWlLk6GJQsqaUBKTNV-1">
          <mxGeometry x="-115" y="-700" width="380" height="30" as="geometry" />
        </mxCell>
        <mxCell id="vteJUobceDA6RaGQ8-ky-22" value="Objecter" style="swimlane;fontStyle=1;align=center;verticalAlign=top;childLayout=stackLayout;horizontal=1;startSize=26;horizontalStack=0;resizeParent=1;resizeParentMax=0;resizeLast=0;collapsible=1;marginBottom=0;whiteSpace=wrap;html=1;arcSize=42;fontFamily=Helvetica;fontSize=12;fontColor=default;fillColor=none;gradientColor=none;" vertex="1" parent="WIyWlLk6GJQsqaUBKTNV-1">
          <mxGeometry x="380" y="-660" width="680" height="840" as="geometry" />
        </mxCell>
        <mxCell id="vteJUobceDA6RaGQ8-ky-23" value="+ messenger:&amp;nbsp;Messenger *&lt;div&gt;+&amp;nbsp;monc:&lt;span style=&quot;white-space: pre;&quot;&gt;&#x9;&amp;nbsp;&lt;/span&gt;&amp;nbsp; &amp;nbsp; &amp;nbsp;&amp;nbsp;&lt;span style=&quot;background-color: initial;&quot;&gt;MonClient *&lt;/span&gt;&lt;/div&gt;&lt;div&gt;&lt;span style=&quot;background-color: initial;&quot;&gt;+&amp;nbsp;&lt;/span&gt;&lt;span style=&quot;background-color: initial;&quot;&gt;finisher:&amp;nbsp;&lt;/span&gt;&lt;span style=&quot;background-color: initial;&quot;&gt;Finisher *&lt;/span&gt;&lt;/div&gt;&lt;div&gt;&lt;span style=&quot;background-color: initial;&quot;&gt;&lt;br&gt;&lt;/span&gt;&lt;/div&gt;&lt;div&gt;&lt;span style=&quot;background-color: initial;&quot;&gt;+&amp;nbsp;&lt;/span&gt;&lt;span style=&quot;font-family: &amp;quot;Helvetica Neue&amp;quot;; font-size: 13px; background-color: initial;&quot;&gt;osd_sessions:&amp;nbsp;&lt;/span&gt;&lt;span style=&quot;font-family: &amp;quot;Helvetica Neue&amp;quot;; font-size: 13px; background-color: initial;&quot;&gt;map&amp;lt;int, OSDSession*&amp;gt;&lt;/span&gt;&lt;/div&gt;&lt;div&gt;&lt;span style=&quot;font-family: &amp;quot;Helvetica Neue&amp;quot;; font-size: 13px; background-color: initial;&quot;&gt;+&amp;nbsp;&lt;/span&gt;&lt;span style=&quot;background-color: initial; font-size: 13px;&quot;&gt;&lt;font face=&quot;Helvetica Neue&quot;&gt;homeless_session:&amp;nbsp;&lt;/font&gt;&lt;/span&gt;&lt;span style=&quot;background-color: initial; font-size: 13px;&quot;&gt;&lt;font face=&quot;Helvetica Neue&quot;&gt;OSDSession *&lt;/font&gt;&lt;/span&gt;&lt;/div&gt;&lt;div&gt;&lt;span style=&quot;background-color: initial;&quot;&gt;&lt;br&gt;&lt;/span&gt;&lt;/div&gt;&lt;div&gt;&lt;span style=&quot;background-color: initial;&quot;&gt;-&amp;nbsp;&lt;/span&gt;&lt;span style=&quot;background-color: initial;&quot;&gt;osdmap:&amp;nbsp;&lt;/span&gt;&lt;span style=&quot;background-color: initial;&quot;&gt;OSDMap&amp;nbsp; &amp;nbsp; *&lt;/span&gt;&lt;/div&gt;&lt;div&gt;&lt;span style=&quot;background-color: initial;&quot;&gt;+&amp;nbsp;&lt;/span&gt;&lt;span style=&quot;background-color: initial;&quot;&gt;crush_location:&amp;nbsp;&lt;/span&gt;&lt;span style=&quot;background-color: initial;&quot;&gt;std::multimap&amp;lt;string,string&amp;gt;&lt;/span&gt;&lt;/div&gt;&lt;div&gt;&lt;span style=&quot;background-color: initial;&quot;&gt;+&amp;nbsp;&lt;/span&gt;&lt;span style=&quot;background-color: initial;&quot;&gt;initialized:&amp;nbsp;&lt;/span&gt;&lt;span style=&quot;background-color: initial;&quot;&gt;std::atomic&amp;lt;bool&amp;gt; = false&lt;/span&gt;&lt;/div&gt;&lt;div&gt;&lt;br&gt;&lt;/div&gt;&lt;div&gt;-&amp;nbsp;last_tid:&amp;nbsp;std::atomic&amp;lt;uint64_t&amp;gt; = 0&lt;/div&gt;&lt;div&gt;-&amp;nbsp;inflight_ops:&amp;nbsp;std::atomic&amp;lt;unsigned&amp;gt; = 0&lt;/div&gt;&lt;div&gt;-&amp;nbsp;client_inc:&amp;nbsp;std::atomic&amp;lt;int&amp;gt; = -1&lt;/div&gt;&lt;div&gt;&lt;br&gt;&lt;/div&gt;&lt;div&gt;-&amp;nbsp;num_in_flight:&amp;nbsp;std::atomic&amp;lt;unsigned&amp;gt; = 0&lt;/div&gt;&lt;div&gt;-&amp;nbsp;global_op_flags:&amp;nbsp;std::atomic&amp;lt;int&amp;gt; = 0&lt;/div&gt;&lt;div&gt;&lt;br&gt;&lt;/div&gt;&lt;div&gt;-&amp;nbsp;keep_balanced_budget: bool&lt;/div&gt;&lt;div&gt;-&amp;nbsp;honor_osdmap_full: bool&lt;/div&gt;&lt;div&gt;-&amp;nbsp;osdmap_full_try: bool&lt;/div&gt;&lt;div&gt;&lt;br&gt;&lt;/div&gt;&lt;div&gt;-&amp;nbsp;blacklist_events_enabled: bool&lt;/div&gt;&lt;div&gt;-&amp;nbsp;blacklist_events:&amp;nbsp;std::set&amp;lt;entity_addr_t&amp;gt;&lt;/div&gt;&lt;div&gt;&lt;br&gt;&lt;/div&gt;&lt;div&gt;-&amp;nbsp;timer:&amp;nbsp;ceph::timer&amp;lt;ceph::coarse_mono_clock&amp;gt;&lt;/div&gt;&lt;div&gt;- tick_event:&amp;nbsp;uint64_t&lt;/div&gt;&lt;div&gt;&lt;br&gt;&lt;/div&gt;&lt;div&gt;+&amp;nbsp;&lt;span style=&quot;font-family: &amp;quot;Helvetica Neue&amp;quot;; font-size: 13px; background-color: initial;&quot;&gt;linger_ops:&amp;nbsp;&lt;/span&gt;&lt;span style=&quot;font-family: &amp;quot;Helvetica Neue&amp;quot;; font-size: 13px; background-color: initial;&quot;&gt;map&amp;lt;uint64_t, LingerOp*&amp;gt;&lt;/span&gt;&lt;/div&gt;&lt;div&gt;&lt;span style=&quot;font-family: &amp;quot;Helvetica Neue&amp;quot;; font-size: 13px; background-color: initial;&quot;&gt;+&amp;nbsp;&lt;/span&gt;&lt;span style=&quot;font-family: &amp;quot;Helvetica Neue&amp;quot;; font-size: 13px; background-color: initial;&quot;&gt;linger_ops_set:&amp;nbsp;&lt;/span&gt;&lt;span style=&quot;font-family: &amp;quot;Helvetica Neue&amp;quot;; font-size: 13px; background-color: initial;&quot;&gt;set&amp;lt;LingerOp*&amp;gt;&amp;nbsp; //&lt;/span&gt;&lt;span style=&quot;font-family: &amp;quot;Helvetica Neue&amp;quot;; font-size: 13px; background-color: initial;&quot;&gt;&amp;nbsp;we use this just to confirm a cookie is valid before dereferencing the ptr&lt;/span&gt;&lt;/div&gt;&lt;div&gt;&lt;span style=&quot;font-family: &amp;quot;Helvetica Neue&amp;quot;; font-size: 13px; background-color: initial;&quot;&gt;&lt;br&gt;&lt;/span&gt;&lt;/div&gt;&lt;div&gt;&lt;span style=&quot;font-family: &amp;quot;Helvetica Neue&amp;quot;; font-size: 13px; background-color: initial;&quot;&gt;+&amp;nbsp;&lt;/span&gt;&lt;span style=&quot;font-family: &amp;quot;Helvetica Neue&amp;quot;; font-size: 13px; background-color: initial;&quot;&gt;poolstat_ops:&amp;nbsp;&lt;/span&gt;&lt;span style=&quot;font-family: &amp;quot;Helvetica Neue&amp;quot;; font-size: 13px; background-color: initial;&quot;&gt;map&amp;lt;ceph_tid_t, PoolStatOp*&amp;gt;&lt;/span&gt;&lt;/div&gt;&lt;div&gt;&lt;span style=&quot;font-family: &amp;quot;Helvetica Neue&amp;quot;; font-size: 13px; background-color: initial;&quot;&gt;+&amp;nbsp;&lt;/span&gt;&lt;span style=&quot;font-family: &amp;quot;Helvetica Neue&amp;quot;; font-size: 13px; background-color: initial;&quot;&gt;statfs_ops:&amp;nbsp;&lt;/span&gt;&lt;span style=&quot;font-family: &amp;quot;Helvetica Neue&amp;quot;; font-size: 13px; background-color: initial;&quot;&gt;map&amp;lt;ceph_tid_t,StatfsOp*&amp;gt;&lt;/span&gt;&lt;/div&gt;&lt;div&gt;&lt;span style=&quot;font-family: &amp;quot;Helvetica Neue&amp;quot;; font-size: 13px; background-color: initial;&quot;&gt;+&amp;nbsp;&lt;/span&gt;&lt;span style=&quot;font-family: &amp;quot;Helvetica Neue&amp;quot;; font-size: 13px; background-color: initial;&quot;&gt;pool_ops:&amp;nbsp;&lt;/span&gt;&lt;span style=&quot;font-family: &amp;quot;Helvetica Neue&amp;quot;; font-size: 13px; background-color: initial;&quot; class=&quot;Apple-converted-space&quot;&gt;&amp;nbsp;&lt;/span&gt;&lt;span style=&quot;font-family: &amp;quot;Helvetica Neue&amp;quot;; font-size: 13px; background-color: initial;&quot;&gt;map&amp;lt;ceph_tid_t,PoolOp*&amp;gt;&lt;/span&gt;&lt;/div&gt;&lt;div&gt;&lt;span style=&quot;font-family: &amp;quot;Helvetica Neue&amp;quot;; font-size: 13px; background-color: initial;&quot;&gt;+&amp;nbsp;&lt;/span&gt;&lt;span style=&quot;font-family: &amp;quot;Helvetica Neue&amp;quot;; font-size: 13px; background-color: initial;&quot;&gt;num_homeless_ops:&amp;nbsp;&lt;/span&gt;&lt;span style=&quot;font-family: &amp;quot;Helvetica Neue&amp;quot;; font-size: 13px; background-color: initial;&quot; class=&quot;Apple-converted-space&quot;&gt;&amp;nbsp;&lt;/span&gt;&lt;span style=&quot;font-family: &amp;quot;Helvetica Neue&amp;quot;; font-size: 13px; background-color: initial;&quot;&gt;std::atomic&amp;lt;unsigned&amp;gt; = 0&lt;/span&gt;&lt;/div&gt;&lt;div&gt;&lt;span style=&quot;background-color: initial; font-family: &amp;quot;Helvetica Neue&amp;quot;; font-size: 13px;&quot;&gt;&lt;br&gt;&lt;/span&gt;&lt;/div&gt;&lt;div&gt;&lt;span style=&quot;background-color: initial; font-family: &amp;quot;Helvetica Neue&amp;quot;; font-size: 13px;&quot;&gt;&lt;br&gt;&lt;/span&gt;&lt;/div&gt;&lt;div&gt;&lt;span style=&quot;background-color: initial; font-size: 13px;&quot;&gt;&lt;font face=&quot;Helvetica Neue&quot;&gt;&lt;div style=&quot;&quot;&gt;// ops waiting for an osdmap with a new pool or confirmation that&lt;/div&gt;&lt;div style=&quot;&quot;&gt;&amp;nbsp; // the pool does not exist (may be expanded to other uses later)&lt;/div&gt;&lt;/font&gt;&lt;/span&gt;&lt;/div&gt;&lt;div&gt;&lt;span style=&quot;background-color: initial; font-family: &amp;quot;Helvetica Neue&amp;quot;; font-size: 13px;&quot;&gt;+&amp;nbsp;&lt;/span&gt;&lt;span style=&quot;background-color: initial; font-size: 13px;&quot;&gt;&lt;font face=&quot;Helvetica Neue&quot;&gt;check_latest_map_lingers:&amp;nbsp;&lt;/font&gt;&lt;/span&gt;&lt;span style=&quot;background-color: initial; font-size: 13px;&quot;&gt;&lt;font face=&quot;Helvetica Neue&quot;&gt;map&amp;lt;uint64_t, LingerOp*&amp;gt;&lt;/font&gt;&lt;/span&gt;&lt;br&gt;&lt;/div&gt;&lt;div&gt;+&amp;nbsp;check_latest_map_ops:&amp;nbsp;map&amp;lt;ceph_tid_t, Op*&amp;gt;&lt;/div&gt;&lt;div&gt;+&amp;nbsp;check_latest_map_commands:&amp;nbsp;map&amp;lt;ceph_tid_t, CommandOp*&amp;gt;&lt;/div&gt;&lt;div&gt;&lt;br&gt;&lt;/div&gt;&lt;div&gt;&lt;span style=&quot;background-color: initial; font-family: &amp;quot;Helvetica Neue&amp;quot;; font-size: 13px;&quot;&gt;+&amp;nbsp;&lt;/span&gt;&lt;span style=&quot;background-color: initial; font-size: 13px;&quot;&gt;&lt;font face=&quot;Helvetica Neue&quot;&gt;waiting_for_map:&amp;nbsp;&lt;/font&gt;&lt;/span&gt;&lt;span style=&quot;background-color: initial; font-size: 13px;&quot;&gt;&lt;font face=&quot;Helvetica Neue&quot;&gt;map&amp;lt;epoch_t, list&amp;lt; pair&amp;lt;Context*, int&amp;gt;&amp;gt;&amp;gt;&lt;/font&gt;&lt;/span&gt;&lt;/div&gt;&lt;div&gt;&lt;span style=&quot;font-family: &amp;quot;Helvetica Neue&amp;quot;; font-size: 13px; background-color: initial;&quot;&gt;&lt;br&gt;&lt;/span&gt;&lt;/div&gt;&lt;div&gt;&lt;span style=&quot;font-family: &amp;quot;Helvetica Neue&amp;quot;; font-size: 13px; background-color: initial;&quot;&gt;&lt;br&gt;&lt;/span&gt;&lt;/div&gt;&lt;div&gt;&lt;span style=&quot;background-color: initial;&quot;&gt;&lt;br&gt;&lt;/span&gt;&lt;/div&gt;&lt;div&gt;&lt;span style=&quot;background-color: initial;&quot;&gt;&lt;br&gt;&lt;/span&gt;&lt;/div&gt;" style="text;strokeColor=none;fillColor=none;align=left;verticalAlign=top;spacingLeft=4;spacingRight=4;overflow=hidden;rotatable=0;points=[[0,0.5],[1,0.5]];portConstraint=eastwest;whiteSpace=wrap;html=1;fontFamily=Helvetica;fontSize=12;fontColor=default;" vertex="1" parent="vteJUobceDA6RaGQ8-ky-22">
          <mxGeometry y="26" width="680" height="704" as="geometry" />
        </mxCell>
        <mxCell id="vteJUobceDA6RaGQ8-ky-24" value="" style="line;strokeWidth=1;fillColor=none;align=left;verticalAlign=middle;spacingTop=-1;spacingLeft=3;spacingRight=3;rotatable=0;labelPosition=right;points=[];portConstraint=eastwest;strokeColor=inherit;arcSize=42;fontFamily=Helvetica;fontSize=12;fontColor=default;" vertex="1" parent="vteJUobceDA6RaGQ8-ky-22">
          <mxGeometry y="730" width="680" height="8" as="geometry" />
        </mxCell>
        <mxCell id="vteJUobceDA6RaGQ8-ky-25" value="+ Objecter::_maybe_request_map(): void&lt;div&gt;+&amp;nbsp;Objecter::_wait_for_new_map(Context *c, epoch_t epoch, int err): void&lt;/div&gt;&lt;div&gt;&lt;br&gt;&lt;/div&gt;&lt;div&gt;-&amp;nbsp;update_crush_location(): void&amp;nbsp; // 捕获 cct 中&amp;nbsp;&lt;span style=&quot;background-color: initial;&quot;&gt;crush_location 项的更新&lt;/span&gt;&lt;/div&gt;&lt;div&gt;&lt;span style=&quot;background-color: initial;&quot;&gt;-&amp;nbsp;&lt;/span&gt;&lt;span style=&quot;background-color: initial;&quot;&gt;start_tick(): void&amp;nbsp; // 注册事件，定时调用 tick()&lt;/span&gt;&lt;/div&gt;&lt;div&gt;&lt;span style=&quot;background-color: initial;&quot;&gt;-&amp;nbsp;&lt;/span&gt;&lt;span style=&quot;background-color: initial;&quot;&gt;tick(): void&lt;/span&gt;&lt;/div&gt;" style="text;strokeColor=none;fillColor=none;align=left;verticalAlign=top;spacingLeft=4;spacingRight=4;overflow=hidden;rotatable=0;points=[[0,0.5],[1,0.5]];portConstraint=eastwest;whiteSpace=wrap;html=1;fontFamily=Helvetica;fontSize=12;fontColor=default;" vertex="1" parent="vteJUobceDA6RaGQ8-ky-22">
          <mxGeometry y="738" width="680" height="102" as="geometry" />
        </mxCell>
        <mxCell id="vteJUobceDA6RaGQ8-ky-26" value="«interface»&lt;br&gt;&lt;b&gt;Dispatcher&lt;/b&gt;" style="html=1;whiteSpace=wrap;align=center;verticalAlign=middle;arcSize=42;fontFamily=Helvetica;fontSize=12;fontColor=default;fillColor=none;gradientColor=none;" vertex="1" parent="WIyWlLk6GJQsqaUBKTNV-1">
          <mxGeometry x="540" y="-760" width="110" height="50" as="geometry" />
        </mxCell>
        <mxCell id="vteJUobceDA6RaGQ8-ky-27" value="op_target_t" style="swimlane;fontStyle=1;align=center;verticalAlign=top;childLayout=stackLayout;horizontal=1;startSize=26;horizontalStack=0;resizeParent=1;resizeParentMax=0;resizeLast=0;collapsible=1;marginBottom=0;whiteSpace=wrap;html=1;arcSize=42;fontFamily=Helvetica;fontSize=12;fontColor=default;fillColor=none;gradientColor=none;" vertex="1" parent="WIyWlLk6GJQsqaUBKTNV-1">
          <mxGeometry x="1280" y="-628" width="520" height="530" as="geometry" />
        </mxCell>
        <mxCell id="vteJUobceDA6RaGQ8-ky-28" value="+ flags: int = 0&lt;div&gt;+&amp;nbsp;epoch:&amp;nbsp;epoch_t = 0&amp;nbsp; //&amp;nbsp;表示基于&amp;nbsp;&lt;span style=&quot;background-color: initial;&quot;&gt;epoch 版本的 OSDMap&lt;/span&gt;&lt;span style=&quot;background-color: initial;&quot;&gt;计算的映射关系&lt;/span&gt;&lt;/div&gt;&lt;div&gt;&lt;br&gt;&lt;/div&gt;&lt;div&gt;+&amp;nbsp;base_oid:&amp;nbsp;&lt;span style=&quot;white-space: pre;&quot;&gt;&#x9;&lt;/span&gt;object_t&lt;span style=&quot;white-space: pre;&quot;&gt;&#x9;&lt;/span&gt;&lt;span style=&quot;white-space: pre;&quot;&gt;&#x9;&lt;/span&gt;&lt;span style=&quot;white-space: pre;&quot;&gt;&#x9;&lt;/span&gt;// 初始请求的对象 oid&lt;/div&gt;&lt;div&gt;+&amp;nbsp;base_oloc:&amp;nbsp;&lt;span style=&quot;white-space: pre;&quot;&gt;&#x9;&lt;/span&gt;object_locator_t&lt;span style=&quot;white-space: pre;&quot;&gt;&#x9;&lt;/span&gt;// 初始请求的对象 location&lt;/div&gt;&lt;div&gt;+&amp;nbsp;target_oid:&amp;nbsp;&lt;span style=&quot;white-space: pre;&quot;&gt;&#x9;&lt;/span&gt;object_t&lt;span style=&quot;white-space: pre;&quot;&gt;&#x9;&lt;/span&gt;&lt;span style=&quot;white-space: pre;&quot;&gt;&#x9;&lt;/span&gt;&lt;span style=&quot;white-space: pre;&quot;&gt;&#x9;&lt;/span&gt;// 由于 cache tier /&amp;nbsp;&lt;span style=&quot;background-color: initial;&quot;&gt;MOSDOpReply 等因素重定向的 对象 oid&lt;/span&gt;&lt;/div&gt;&lt;div&gt;+&amp;nbsp;target_oloc:&amp;nbsp;&lt;span style=&quot;white-space: pre;&quot;&gt;&#x9;&lt;/span&gt;object_locator_t&lt;span style=&quot;white-space: pre;&quot;&gt;&#x9;&lt;/span&gt;// 重定向的 location&lt;/div&gt;&lt;div&gt;&lt;br&gt;&lt;/div&gt;&lt;div&gt;+&amp;nbsp;precalc_pgid: bool = false&amp;nbsp; //&amp;nbsp;表示是否直接定位到 base_pgid 而不是 base_oid&lt;br&gt;&lt;/div&gt;&lt;div&gt;+&amp;nbsp;base_pgid:&amp;nbsp;pg_t&lt;span style=&quot;white-space: pre;&quot;&gt;&#x9;&lt;/span&gt;&lt;span style=&quot;white-space: pre;&quot;&gt;&#x9;&lt;/span&gt;&amp;nbsp; &amp;nbsp; &amp;nbsp;//&amp;nbsp;显式的PG目标，如果存在的话，&lt;span style=&quot;background-color: initial;&quot;&gt;precalc_pgid 为 true&lt;/span&gt;&lt;/div&gt;&lt;div&gt;+&amp;nbsp;pgid:&amp;nbsp;pg_t&lt;span style=&quot;white-space: pre;&quot;&gt;&#x9;&lt;/span&gt;&lt;span style=&quot;white-space: pre;&quot;&gt;&#x9;&lt;/span&gt;&lt;span style=&quot;white-space: pre;&quot;&gt;&#x9;&lt;/span&gt;&amp;nbsp; &amp;nbsp; &amp;nbsp;//&amp;nbsp;最后映射到的（原始）PG ID，没有经过 stable_mod&lt;/div&gt;&lt;div&gt;+&amp;nbsp;actual_pgid:&amp;nbsp;spg_t&lt;/div&gt;&lt;div&gt;&lt;br&gt;&lt;/div&gt;&lt;div&gt;&lt;br&gt;&lt;/div&gt;&lt;div&gt;+&amp;nbsp;pool_ever_existed: bool = false&lt;/div&gt;&lt;div&gt;&lt;br&gt;&lt;/div&gt;&lt;div&gt;+&amp;nbsp;pg_num:&amp;nbsp;unsigned = 0&lt;span style=&quot;white-space: pre;&quot;&gt;&#x9;&lt;/span&gt;&lt;span style=&quot;white-space: pre;&quot;&gt;&#x9;&lt;span style=&quot;white-space: pre;&quot;&gt;&#x9;&lt;/span&gt;// 计算映射时该 pool 的 pg_num&lt;/span&gt;&lt;/div&gt;&lt;div&gt;+&amp;nbsp;pg_num_mask:&amp;nbsp;unsigne&lt;span style=&quot;background-color: initial;&quot;&gt;d = 0&lt;span style=&quot;white-space: pre;&quot;&gt;&#x9;&lt;/span&gt;&lt;/span&gt;&lt;span style=&quot;white-space: pre; background-color: initial;&quot;&gt;// 计算映射时该 pool 的 &lt;/span&gt;&lt;span style=&quot;background-color: initial;&quot;&gt;pg_num_mask&lt;/span&gt;&lt;/div&gt;&lt;div&gt;&lt;span style=&quot;background-color: initial;&quot;&gt;+&amp;nbsp;&lt;/span&gt;&lt;span style=&quot;background-color: initial;&quot;&gt;size: int = -1&lt;span style=&quot;white-space: pre;&quot;&gt;&#x9;&lt;/span&gt;&lt;span style=&quot;white-space: pre;&quot;&gt;&#x9;&lt;/span&gt;&lt;span style=&quot;white-space: pre;&quot;&gt;&#x9;&lt;/span&gt;&lt;span style=&quot;white-space: pre;&quot;&gt;&#x9;&lt;/span&gt;&lt;span style=&quot;white-space: pre;&quot;&gt;&#x9;&lt;/span&gt;&lt;/span&gt;&lt;span style=&quot;white-space: pre; background-color: initial;&quot;&gt;// 计算映射时该 pool 的 size 信息&lt;/span&gt;&lt;/div&gt;&lt;div&gt;&lt;span style=&quot;background-color: initial;&quot;&gt;+&amp;nbsp;&lt;/span&gt;&lt;span style=&quot;background-color: initial;&quot;&gt;min_size: int = -1&lt;/span&gt;&lt;span style=&quot;background-color: initial; border-color: var(--border-color);&quot;&gt;&lt;span style=&quot;border-color: var(--border-color); white-space: pre;&quot;&gt;&#x9;&lt;/span&gt;&lt;span style=&quot;border-color: var(--border-color); white-space: pre;&quot;&gt;&#x9;&lt;/span&gt;&lt;span style=&quot;border-color: var(--border-color); white-space: pre;&quot;&gt;&#x9;&lt;/span&gt;&lt;span style=&quot;border-color: var(--border-color); white-space: pre;&quot;&gt;&#x9;&lt;/span&gt;&lt;/span&gt;&lt;span style=&quot;background-color: initial; border-color: var(--border-color); white-space: pre;&quot;&gt;// 计算映射时该 pool 的 &lt;span style=&quot;white-space: normal;&quot;&gt;min_size&lt;/span&gt; 信息&lt;/span&gt;&lt;/div&gt;&lt;div&gt;&lt;span style=&quot;background-color: initial;&quot;&gt;&lt;br&gt;&lt;/span&gt;&lt;/div&gt;&lt;div&gt;&lt;span style=&quot;background-color: initial;&quot;&gt;+&amp;nbsp;&lt;/span&gt;&lt;span style=&quot;background-color: initial;&quot;&gt;up:&amp;nbsp;&lt;/span&gt;&lt;span style=&quot;background-color: initial;&quot;&gt;vector&amp;lt;int&amp;gt;&lt;span style=&quot;white-space: pre;&quot;&gt;&#x9;&lt;/span&gt;&lt;span style=&quot;white-space: pre;&quot;&gt;&#x9;&lt;/span&gt;&lt;span style=&quot;white-space: pre;&quot;&gt;&#x9;&lt;/span&gt;&lt;/span&gt;&lt;span style=&quot;white-space: pre; background-color: initial;&quot;&gt;// 计算映射时得到的 up osds 的集合&lt;/span&gt;&lt;/div&gt;&lt;div&gt;&lt;span style=&quot;background-color: initial;&quot;&gt;+&amp;nbsp;&lt;/span&gt;&lt;span style=&quot;background-color: initial;&quot;&gt;acting:&amp;nbsp;&lt;/span&gt;&lt;span style=&quot;background-color: initial;&quot;&gt;vector&amp;lt;int&amp;gt;&lt;span style=&quot;white-space: pre;&quot;&gt;&#x9;&lt;/span&gt;&lt;span style=&quot;white-space: pre;&quot;&gt;&#x9;&lt;/span&gt;&lt;/span&gt;&lt;span style=&quot;white-space: pre; background-color: initial;&quot;&gt;// 计算映射时得到的 &lt;/span&gt;&lt;span style=&quot;background-color: initial; white-space: pre;&quot;&gt;acting&lt;/span&gt;&lt;span style=&quot;background-color: initial; white-space: pre;&quot;&gt; osds 的集合&lt;/span&gt;&lt;/div&gt;&lt;div&gt;&lt;span style=&quot;background-color: initial;&quot;&gt;+&amp;nbsp;&lt;/span&gt;&lt;span style=&quot;background-color: initial;&quot;&gt;up_primary: int = -1&lt;span style=&quot;white-space: pre;&quot;&gt;&#x9;&lt;/span&gt;&lt;span style=&quot;white-space: pre;&quot;&gt;&#x9;&lt;/span&gt;// up 集合中选出的 primary osd（一般选第一个）&lt;/span&gt;&lt;/div&gt;&lt;div&gt;&lt;span style=&quot;background-color: initial;&quot;&gt;+&amp;nbsp;&lt;/span&gt;&lt;span style=&quot;background-color: initial;&quot;&gt;acting_primary: int = -1&lt;span style=&quot;white-space: pre;&quot;&gt;&#x9;&lt;/span&gt;&lt;/span&gt;&lt;span style=&quot;background-color: initial;&quot;&gt;//&amp;nbsp;&lt;/span&gt;&lt;span style=&quot;white-space: pre; background-color: initial;&quot;&gt;acting&lt;/span&gt;&lt;span style=&quot;background-color: initial;&quot;&gt;&amp;nbsp;集合中选出的 primary osd（一般选第一个）&lt;/span&gt;&lt;/div&gt;&lt;div&gt;&lt;span style=&quot;background-color: initial;&quot;&gt;+&amp;nbsp;&lt;/span&gt;&lt;span style=&quot;background-color: initial;&quot;&gt;osd: int = -1&lt;span style=&quot;white-space: pre;&quot;&gt;&#x9;&lt;/span&gt;&lt;span style=&quot;white-space: pre;&quot;&gt;&#x9;&lt;/span&gt;&lt;span style=&quot;white-space: pre;&quot;&gt;&#x9;&lt;/span&gt;&lt;span style=&quot;white-space: pre;&quot;&gt;&#x9;&lt;/span&gt;//&amp;nbsp;&lt;/span&gt;&lt;span style=&quot;background-color: initial;&quot;&gt;表示最终目标OSD，没有则为-1，写 op 和 大多数的 读 op 都是&amp;nbsp;&lt;/span&gt;&lt;span style=&quot;background-color: initial;&quot;&gt;t-&amp;gt;osd = acting_primary&lt;/span&gt;&lt;/div&gt;&lt;div&gt;&lt;span style=&quot;background-color: initial;&quot;&gt;&lt;br&gt;&lt;/span&gt;&lt;/div&gt;&lt;div&gt;&lt;span style=&quot;background-color: initial;&quot;&gt;+&amp;nbsp;&lt;/span&gt;&lt;span style=&quot;background-color: initial;&quot;&gt;sort_bitwise: bool = false&lt;/span&gt;&lt;/div&gt;&lt;div&gt;&lt;span style=&quot;background-color: initial;&quot;&gt;+&amp;nbsp;&lt;/span&gt;&lt;span style=&quot;background-color: initial;&quot;&gt;recovery_deletes: bool = false&lt;/span&gt;&lt;/div&gt;&lt;div&gt;&lt;span style=&quot;background-color: initial;&quot;&gt;+&amp;nbsp;&lt;/span&gt;&lt;span style=&quot;background-color: initial;&quot;&gt;used_replica: bool = false&lt;/span&gt;&lt;/div&gt;&lt;div&gt;&lt;span style=&quot;background-color: initial;&quot;&gt;+&amp;nbsp;&lt;/span&gt;&lt;span style=&quot;background-color: initial;&quot;&gt;paused: bool = false&lt;/span&gt;&lt;/div&gt;&lt;div&gt;&lt;span style=&quot;background-color: initial;&quot;&gt;&lt;br&gt;&lt;/span&gt;&lt;/div&gt;&lt;div&gt;&lt;span style=&quot;background-color: initial;&quot;&gt;+&amp;nbsp;&lt;/span&gt;&lt;span style=&quot;background-color: initial;&quot;&gt;last_force_resend:&amp;nbsp;&lt;/span&gt;&lt;span style=&quot;background-color: initial;&quot;&gt;epoch_t = 0&lt;span style=&quot;white-space: pre;&quot;&gt;&#x9;&lt;/span&gt;//&amp;nbsp;&lt;/span&gt;&lt;span style=&quot;background-color: initial;&quot;&gt;上一次强制重新发送的epoch&lt;/span&gt;&lt;/div&gt;&lt;div&gt;&lt;span style=&quot;background-color: initial;&quot;&gt;&lt;br&gt;&lt;/span&gt;&lt;/div&gt;" style="text;strokeColor=none;fillColor=none;align=left;verticalAlign=top;spacingLeft=4;spacingRight=4;overflow=hidden;rotatable=0;points=[[0,0.5],[1,0.5]];portConstraint=eastwest;whiteSpace=wrap;html=1;fontFamily=Helvetica;fontSize=12;fontColor=default;" vertex="1" parent="vteJUobceDA6RaGQ8-ky-27">
          <mxGeometry y="26" width="520" height="504" as="geometry" />
        </mxCell>
        <mxCell id="vteJUobceDA6RaGQ8-ky-31" value="object_locator_t" style="swimlane;fontStyle=0;childLayout=stackLayout;horizontal=1;startSize=26;fillColor=none;horizontalStack=0;resizeParent=1;resizeParentMax=0;resizeLast=0;collapsible=1;marginBottom=0;whiteSpace=wrap;html=1;align=center;verticalAlign=middle;arcSize=42;fontFamily=Helvetica;fontSize=12;fontColor=default;" vertex="1" parent="WIyWlLk6GJQsqaUBKTNV-1">
          <mxGeometry x="1160" y="-760" width="290" height="110" as="geometry" />
        </mxCell>
        <mxCell id="vteJUobceDA6RaGQ8-ky-32" value="&lt;div&gt;// You specify either the hash or the key -- not both&lt;br&gt;&lt;/div&gt;+ pool: int64_t&amp;nbsp; &lt;span style=&quot;white-space: pre;&quot;&gt;&#x9;&lt;/span&gt;//&amp;nbsp;pool id&lt;div&gt;+&amp;nbsp;key:&amp;nbsp;string&amp;nbsp; &lt;span style=&quot;white-space: pre;&quot;&gt;&#x9;&lt;span style=&quot;white-space: pre;&quot;&gt;&#x9;&lt;/span&gt;&lt;/span&gt;//&amp;nbsp;key string (if non-empty)&lt;/div&gt;&lt;div&gt;+&amp;nbsp;nspace:&amp;nbsp;string&amp;nbsp; &lt;span style=&quot;white-space: pre;&quot;&gt;&#x9;&lt;/span&gt;//&amp;nbsp;namespace&lt;/div&gt;&lt;div&gt;+&amp;nbsp;hash:&amp;nbsp;int64_t&amp;nbsp; &lt;span style=&quot;white-space: pre;&quot;&gt;&#x9;&lt;/span&gt;//&amp;nbsp;hash position (if &amp;gt;= 0)&lt;/div&gt;" style="text;strokeColor=none;fillColor=none;align=left;verticalAlign=top;spacingLeft=4;spacingRight=4;overflow=hidden;rotatable=0;points=[[0,0.5],[1,0.5]];portConstraint=eastwest;whiteSpace=wrap;html=1;fontFamily=Helvetica;fontSize=12;fontColor=default;" vertex="1" parent="vteJUobceDA6RaGQ8-ky-31">
          <mxGeometry y="26" width="290" height="84" as="geometry" />
        </mxCell>
        <mxCell id="vteJUobceDA6RaGQ8-ky-35" value="该结构封装了对象所在的PG，以及PG对应的OSD列表等信息" style="text;html=1;align=center;verticalAlign=middle;resizable=0;points=[];autosize=1;strokeColor=none;fillColor=none;fontFamily=Helvetica;fontSize=12;fontColor=default;" vertex="1" parent="WIyWlLk6GJQsqaUBKTNV-1">
          <mxGeometry x="985" y="-962" width="350" height="30" as="geometry" />
        </mxCell>
      </root>
    </mxGraphModel>
  </diagram>
</mxfile>
